<svg xmlns="http://www.w3.org/2000/svg" xmlns:xlink="http://www.w3.org/1999/xlink" width="50" zoomAndPan="magnify" viewBox="0 0 37.5 37.499999" height="50" preserveAspectRatio="xMidYMid meet" version="1.0"><defs><clipPath id="9a54f90ce7"><path d="M 0 0 L 37.007812 0 L 37.007812 37.007812 L 0 37.007812 Z M 0 0 " clip-rule="nonzero"/></clipPath></defs><g clip-path="url(#9a54f90ce7)"><path fill="#ffffff" d="M 18.503906 0 C 17.898438 0 17.292969 0.03125 16.691406 0.0898438 C 16.085938 0.148438 15.488281 0.238281 14.894531 0.355469 C 14.300781 0.472656 13.710938 0.621094 13.132812 0.796875 C 12.550781 0.972656 11.980469 1.175781 11.421875 1.410156 C 10.863281 1.640625 10.316406 1.898438 9.78125 2.183594 C 9.246094 2.46875 8.726562 2.78125 8.222656 3.117188 C 7.71875 3.453125 7.234375 3.816406 6.765625 4.199219 C 6.296875 4.585938 5.847656 4.992188 5.417969 5.417969 C 4.992188 5.847656 4.585938 6.296875 4.199219 6.765625 C 3.816406 7.234375 3.453125 7.71875 3.117188 8.222656 C 2.78125 8.726562 2.46875 9.246094 2.183594 9.78125 C 1.898438 10.316406 1.640625 10.863281 1.410156 11.421875 C 1.175781 11.980469 0.972656 12.550781 0.796875 13.132812 C 0.621094 13.710938 0.472656 14.300781 0.355469 14.894531 C 0.238281 15.488281 0.148438 16.085938 0.0898438 16.691406 C 0.03125 17.292969 0 17.898438 0 18.503906 C 0 19.109375 0.03125 19.714844 0.0898438 20.316406 C 0.148438 20.921875 0.238281 21.519531 0.355469 22.113281 C 0.472656 22.707031 0.621094 23.292969 0.796875 23.875 C 0.972656 24.453125 1.175781 25.023438 1.410156 25.585938 C 1.640625 26.144531 1.898438 26.691406 2.183594 27.226562 C 2.46875 27.761719 2.78125 28.277344 3.117188 28.78125 C 3.453125 29.285156 3.816406 29.773438 4.199219 30.242188 C 4.585938 30.710938 4.992188 31.160156 5.417969 31.585938 C 5.847656 32.015625 6.296875 32.421875 6.765625 32.804688 C 7.234375 33.191406 7.71875 33.550781 8.222656 33.886719 C 8.726562 34.226562 9.246094 34.535156 9.78125 34.820312 C 10.316406 35.105469 10.863281 35.367188 11.421875 35.597656 C 11.980469 35.828125 12.550781 36.035156 13.132812 36.210938 C 13.710938 36.386719 14.300781 36.53125 14.894531 36.652344 C 15.488281 36.769531 16.085938 36.859375 16.691406 36.917969 C 17.292969 36.976562 17.898438 37.007812 18.503906 37.007812 C 19.109375 37.007812 19.714844 36.976562 20.316406 36.917969 C 20.921875 36.859375 21.519531 36.769531 22.113281 36.652344 C 22.707031 36.53125 23.292969 36.386719 23.875 36.210938 C 24.453125 36.035156 25.023438 35.828125 25.585938 35.597656 C 26.144531 35.367188 26.691406 35.105469 27.226562 34.820312 C 27.761719 34.535156 28.277344 34.226562 28.78125 33.886719 C 29.285156 33.550781 29.773438 33.191406 30.242188 32.804688 C 30.710938 32.421875 31.160156 32.015625 31.585938 31.585938 C 32.015625 31.160156 32.421875 30.710938 32.804688 30.242188 C 33.191406 29.773438 33.550781 29.285156 33.886719 28.78125 C 34.226562 28.277344 34.535156 27.761719 34.820312 27.226562 C 35.105469 26.691406 35.367188 26.144531 35.597656 25.585938 C 35.828125 25.023438 36.035156 24.453125 36.210938 23.875 C 36.386719 23.292969 36.53125 22.707031 36.652344 22.113281 C 36.769531 21.519531 36.859375 20.921875 36.917969 20.316406 C 36.976562 19.714844 37.007812 19.109375 37.007812 18.503906 C 37.007812 17.898438 36.976562 17.292969 36.917969 16.691406 C 36.859375 16.085938 36.769531 15.488281 36.652344 14.894531 C 36.53125 14.300781 36.386719 13.710938 36.210938 13.132812 C 36.035156 12.550781 35.828125 11.984375 35.597656 11.421875 C 35.367188 10.863281 35.105469 10.316406 34.820312 9.78125 C 34.535156 9.246094 34.222656 8.726562 33.886719 8.222656 C 33.550781 7.71875 33.191406 7.234375 32.804688 6.765625 C 32.421875 6.296875 32.015625 5.847656 31.585938 5.421875 C 31.15625 4.992188 30.710938 4.585938 30.242188 4.199219 C 29.773438 3.816406 29.285156 3.457031 28.78125 3.117188 C 28.277344 2.78125 27.757812 2.472656 27.226562 2.183594 C 26.691406 1.898438 26.144531 1.640625 25.582031 1.410156 C 25.023438 1.175781 24.453125 0.972656 23.875 0.796875 C 23.292969 0.621094 22.707031 0.472656 22.113281 0.355469 C 21.519531 0.238281 20.917969 0.148438 20.316406 0.0898438 C 19.714844 0.03125 19.109375 0 18.503906 0 Z M 9.980469 9.375 L 27.027344 9.375 C 27.390625 9.371094 27.742188 9.4375 28.082031 9.5625 C 28.425781 9.6875 28.734375 9.871094 29.007812 10.109375 C 29.285156 10.34375 29.511719 10.621094 29.6875 10.941406 C 29.863281 11.257812 29.980469 11.597656 30.03125 11.957031 C 29.789062 12.089844 20.421875 17.492188 19.804688 17.84375 C 19.402344 18.074219 18.96875 18.1875 18.503906 18.1875 C 18.039062 18.1875 17.605469 18.074219 17.203125 17.84375 C 16.59375 17.496094 7.203125 12.148438 6.972656 12.003906 C 7.023438 11.640625 7.132812 11.296875 7.308594 10.972656 C 7.480469 10.648438 7.707031 10.367188 7.984375 10.125 C 8.257812 9.882812 8.570312 9.695312 8.914062 9.566406 C 9.257812 9.4375 9.613281 9.375 9.980469 9.375 Z M 30.066406 24.59375 C 30.066406 24.996094 29.988281 25.382812 29.835938 25.753906 C 29.679688 26.128906 29.460938 26.457031 29.175781 26.742188 C 28.890625 27.027344 28.5625 27.246094 28.191406 27.402344 C 27.816406 27.554688 27.429688 27.632812 27.027344 27.632812 L 9.980469 27.632812 C 9.578125 27.632812 9.1875 27.554688 8.816406 27.402344 C 8.445312 27.246094 8.117188 27.027344 7.832031 26.742188 C 7.546875 26.457031 7.324219 26.128906 7.171875 25.753906 C 7.015625 25.382812 6.9375 24.996094 6.9375 24.59375 L 6.9375 13.386719 L 16.605469 18.902344 C 17.195312 19.238281 17.828125 19.40625 18.507812 19.40625 C 19.183594 19.40625 19.816406 19.238281 20.40625 18.902344 L 30.066406 13.339844 Z M 30.066406 24.59375 " fill-opacity="1" fill-rule="nonzero"/></g></svg>